<svg xmlns="http://www.w3.org/2000/svg" viewBox="0 0 900 500" width="900" height="500" role="img" aria-label="MirqabCNN training curves"><defs><marker id="ar" viewBox="0 0 10 10" refX="9" refY="5" markerWidth="6" markerHeight="6" orient="auto-start-reverse"><path d="M 0 0 L 10 5 L 0 10 z" fill="#4ade80"/></marker><marker id="arm" viewBox="0 0 10 10" refX="9" refY="5" markerWidth="6" markerHeight="6" orient="auto-start-reverse"><path d="M 0 0 L 10 5 L 0 10 z" fill="#7eb89a"/></marker><linearGradient id="glow" x1="0" y1="0" x2="0" y2="1"><stop offset="0%" stop-color="#4ade80" stop-opacity="0.16"/><stop offset="100%" stop-color="#4ade80" stop-opacity="0.02"/></linearGradient></defs><rect width="900" height="500" rx="14" fill="#071a14"/><text x="28" y="34" font-family="ui-sans-serif,-apple-system,'Segoe UI',Roboto,Helvetica,Arial,sans-serif" font-size="17" fill="#e8f5e9" text-anchor="start" font-weight="700" opacity="1" letter-spacing="0.3">MIRQABCNN — TRAINING CURVES</text><text x="28" y="53" font-family="ui-sans-serif,-apple-system,'Segoe UI',Roboto,Helvetica,Arial,sans-serif" font-size="11.5" fill="#7eb89a" text-anchor="start" font-weight="500" opacity="1" letter-spacing="0">37 epochs before early stop · best checkpoint at epoch 25 (val acc 0.987)</text><line x1="28" y1="68" x2="872" y2="68" stroke="#1e5640" stroke-width="1" opacity="0.7" stroke-linecap="round"/><rect x="76" y="120" width="786" height="276" rx="8" fill="#0a2019" stroke="#1e5640" stroke-width="1.2" opacity="1"/><line x1="76" y1="396.0" x2="862" y2="396.0" stroke="#1e5640" stroke-width="1" opacity="0.9" stroke-linecap="round"/><text x="64" y="400.0" font-family="ui-monospace,'SF Mono',Menlo,Consolas,'Liberation Mono',monospace" font-size="10" fill="#7eb89a" text-anchor="end" font-weight="500" opacity="1" letter-spacing="0">0.5</text><line x1="76" y1="340.8" x2="862" y2="340.8" stroke="#1e5640" stroke-width="1" opacity="0.5" stroke-linecap="round"/><text x="64" y="344.8" font-family="ui-monospace,'SF Mono',Menlo,Consolas,'Liberation Mono',monospace" font-size="10" fill="#7eb89a" text-anchor="end" font-weight="500" opacity="1" letter-spacing="0">0.6</text><line x1="76" y1="285.6" x2="862" y2="285.6" stroke="#1e5640" stroke-width="1" opacity="0.5" stroke-linecap="round"/><text x="64" y="289.6" font-family="ui-monospace,'SF Mono',Menlo,Consolas,'Liberation Mono',monospace" font-size="10" fill="#7eb89a" text-anchor="end" font-weight="500" opacity="1" letter-spacing="0">0.7</text><line x1="76" y1="230.39999999999998" x2="862" y2="230.39999999999998" stroke="#1e5640" stroke-width="1" opacity="0.5" stroke-linecap="round"/><text x="64" y="234.39999999999998" font-family="ui-monospace,'SF Mono',Menlo,Consolas,'Liberation Mono',monospace" font-size="10" fill="#7eb89a" text-anchor="end" font-weight="500" opacity="1" letter-spacing="0">0.8</text><line x1="76" y1="175.2" x2="862" y2="175.2" stroke="#1e5640" stroke-width="1" opacity="0.5" stroke-linecap="round"/><text x="64" y="179.2" font-family="ui-monospace,'SF Mono',Menlo,Consolas,'Liberation Mono',monospace" font-size="10" fill="#7eb89a" text-anchor="end" font-weight="500" opacity="1" letter-spacing="0">0.9</text><line x1="76" y1="120.0" x2="862" y2="120.0" stroke="#1e5640" stroke-width="1" opacity="0.5" stroke-linecap="round"/><text x="64" y="124.0" font-family="ui-monospace,'SF Mono',Menlo,Consolas,'Liberation Mono',monospace" font-size="10" fill="#7eb89a" text-anchor="end" font-weight="500" opacity="1" letter-spacing="0">1.0</text><line x1="76.0" y1="120" x2="76.0" y2="396" stroke="#1e5640" stroke-width="1" opacity="0.28" stroke-linecap="round"/><text x="76.0" y="414" font-family="ui-monospace,'SF Mono',Menlo,Consolas,'Liberation Mono',monospace" font-size="10" fill="#7eb89a" text-anchor="middle" font-weight="500" opacity="1" letter-spacing="0">1</text><line x1="163.33333333333331" y1="120" x2="163.33333333333331" y2="396" stroke="#1e5640" stroke-width="1" opacity="0.28" stroke-linecap="round"/><text x="163.33333333333331" y="414" font-family="ui-monospace,'SF Mono',Menlo,Consolas,'Liberation Mono',monospace" font-size="10" fill="#7eb89a" text-anchor="middle" font-weight="500" opacity="1" letter-spacing="0">5</text><line x1="272.5" y1="120" x2="272.5" y2="396" stroke="#1e5640" stroke-width="1" opacity="0.28" stroke-linecap="round"/><text x="272.5" y="414" font-family="ui-monospace,'SF Mono',Menlo,Consolas,'Liberation Mono',monospace" font-size="10" fill="#7eb89a" text-anchor="middle" font-weight="500" opacity="1" letter-spacing="0">10</text><line x1="381.6666666666667" y1="120" x2="381.6666666666667" y2="396" stroke="#1e5640" stroke-width="1" opacity="0.28" stroke-linecap="round"/><text x="381.6666666666667" y="414" font-family="ui-monospace,'SF Mono',Menlo,Consolas,'Liberation Mono',monospace" font-size="10" fill="#7eb89a" text-anchor="middle" font-weight="500" opacity="1" letter-spacing="0">15</text><line x1="490.8333333333333" y1="120" x2="490.8333333333333" y2="396" stroke="#1e5640" stroke-width="1" opacity="0.28" stroke-linecap="round"/><text x="490.8333333333333" y="414" font-family="ui-monospace,'SF Mono',Menlo,Consolas,'Liberation Mono',monospace" font-size="10" fill="#7eb89a" text-anchor="middle" font-weight="500" opacity="1" letter-spacing="0">20</text><line x1="600.0" y1="120" x2="600.0" y2="396" stroke="#1e5640" stroke-width="1" opacity="0.28" stroke-linecap="round"/><text x="600.0" y="414" font-family="ui-monospace,'SF Mono',Menlo,Consolas,'Liberation Mono',monospace" font-size="10" fill="#7eb89a" text-anchor="middle" font-weight="500" opacity="1" letter-spacing="0">25</text><line x1="709.1666666666666" y1="120" x2="709.1666666666666" y2="396" stroke="#1e5640" stroke-width="1" opacity="0.28" stroke-linecap="round"/><text x="709.1666666666666" y="414" font-family="ui-monospace,'SF Mono',Menlo,Consolas,'Liberation Mono',monospace" font-size="10" fill="#7eb89a" text-anchor="middle" font-weight="500" opacity="1" letter-spacing="0">30</text><line x1="818.3333333333334" y1="120" x2="818.3333333333334" y2="396" stroke="#1e5640" stroke-width="1" opacity="0.28" stroke-linecap="round"/><text x="818.3333333333334" y="414" font-family="ui-monospace,'SF Mono',Menlo,Consolas,'Liberation Mono',monospace" font-size="10" fill="#7eb89a" text-anchor="middle" font-weight="500" opacity="1" letter-spacing="0">35</text><line x1="862.0" y1="120" x2="862.0" y2="396" stroke="#1e5640" stroke-width="1" opacity="0.28" stroke-linecap="round"/><text x="862.0" y="414" font-family="ui-monospace,'SF Mono',Menlo,Consolas,'Liberation Mono',monospace" font-size="10" fill="#7eb89a" text-anchor="middle" font-weight="500" opacity="1" letter-spacing="0">37</text><text x="469.0" y="434" font-family="ui-sans-serif,-apple-system,'Segoe UI',Roboto,Helvetica,Arial,sans-serif" font-size="10.5" fill="#7eb89a" text-anchor="middle" font-weight="500" opacity="1" letter-spacing="0">epoch</text><line x1="600.0" y1="120" x2="600.0" y2="396" stroke="#4ade80" stroke-width="1.4" opacity="0.75" stroke-dasharray="5 4" stroke-linecap="round"/><text x="600.0" y="112" font-family="ui-sans-serif,-apple-system,'Segoe UI',Roboto,Helvetica,Arial,sans-serif" font-size="10" fill="#4ade80" text-anchor="middle" font-weight="700" opacity="1" letter-spacing="0">best · epoch 25</text><text x="862" y="112" font-family="ui-sans-serif,-apple-system,'Segoe UI',Roboto,Helvetica,Arial,sans-serif" font-size="9.5" fill="#7eb89a" text-anchor="end" font-weight="500" opacity="1" letter-spacing="0">y-axis clipped to 0.50-1.00</text><polyline points="76.0,182.6 97.8,167.4 119.7,161.7 141.5,162.7 163.3,160.5 185.2,161.8 207.0,161.2 228.8,159.7 250.7,159.1 272.5,159.6 294.3,157.0 316.2,160.4 338.0,161.5 359.8,157.8 381.7,159.6 403.5,158.1 425.3,161.1 447.2,156.7 469.0,155.8 490.8,160.0 512.7,160.2 534.5,155.5 556.3,154.8 578.2,157.8 600.0,156.5 621.8,157.9 643.7,156.2 665.5,156.0 687.3,155.3 709.2,156.9 731.0,159.0 752.8,156.5 774.7,155.9 796.5,153.4 818.3,154.9 840.2,159.6 862.0,153.3" fill="none" stroke="#7eb89a" stroke-width="1.8" stroke-linejoin="round" stroke-linecap="round" stroke-dasharray="4 3"/><polyline points="76.0,243.1 97.8,218.9 119.7,297.5 141.5,394.8 163.3,240.3 185.2,215.4 207.0,230.4 228.8,259.8 250.7,206.2 272.5,288.3 294.3,223.8 316.2,267.2 338.0,216.9 359.8,181.3 381.7,190.8 403.5,182.3 425.3,301.9 447.2,181.3 469.0,225.7 490.8,250.3 512.7,182.4 534.5,411.7 556.3,224.0 578.2,233.5 600.0,171.9 621.8,228.8 643.7,198.9 665.5,190.8 687.3,233.7 709.2,232.1 731.0,187.8 752.8,207.6 774.7,192.4 796.5,202.6 818.3,197.6 840.2,221.9 862.0,179.3" fill="none" stroke="#f59e0b" stroke-width="1.9" stroke-linejoin="round" stroke-linecap="round"/><polyline points="76.0,222.9 97.8,149.7 119.7,203.1 141.5,188.8 163.3,142.6 185.2,140.4 207.0,143.7 228.8,160.7 250.7,140.4 272.5,152.5 294.3,141.5 316.2,144.2 338.0,133.2 359.8,128.8 381.7,128.3 403.5,133.7 425.3,156.9 447.2,128.8 469.0,145.3 490.8,138.7 512.7,128.3 534.5,195.4 556.3,136.5 578.2,142.6 600.0,127.2 621.8,134.8 643.7,131.5 665.5,129.3 687.3,138.7 709.2,140.9 731.0,133.2 752.8,131.5 774.7,133.2 796.5,132.1 818.3,129.9 840.2,133.2 862.0,129.9" fill="none" stroke="#4ade80" stroke-width="2.6" stroke-linejoin="round" stroke-linecap="round"/><circle cx="600.0" cy="127.17599999999999" r="4.5" fill="#4ade80" stroke="none" stroke-width="1" opacity="1"/><circle cx="600.0" cy="127.17599999999999" r="8" fill="none" stroke="#4ade80" stroke-width="1.4" opacity="0.6"/><line x1="76" y1="448" x2="102" y2="448" stroke="#4ade80" stroke-width="2.4" opacity="1" stroke-linecap="round"/><text x="110" y="452" font-family="ui-sans-serif,-apple-system,'Segoe UI',Roboto,Helvetica,Arial,sans-serif" font-size="11" fill="#7eb89a" text-anchor="start" font-weight="500" opacity="1" letter-spacing="0">val accuracy</text><line x1="220.8" y1="448" x2="246.8" y2="448" stroke="#7eb89a" stroke-width="2.4" opacity="1" stroke-dasharray="4 3" stroke-linecap="round"/><text x="254.8" y="452" font-family="ui-sans-serif,-apple-system,'Segoe UI',Roboto,Helvetica,Arial,sans-serif" font-size="11" fill="#7eb89a" text-anchor="start" font-weight="500" opacity="1" letter-spacing="0">train accuracy</text><line x1="378.40000000000003" y1="448" x2="404.40000000000003" y2="448" stroke="#f59e0b" stroke-width="2.4" opacity="1" stroke-linecap="round"/><text x="412.40000000000003" y="452" font-family="ui-sans-serif,-apple-system,'Segoe UI',Roboto,Helvetica,Arial,sans-serif" font-size="11" fill="#7eb89a" text-anchor="start" font-weight="500" opacity="1" letter-spacing="0">val F1 · aircraft (hard class)</text></svg>